<svg width="50" height="57" viewBox="0 0 50 57" fill="none" xmlns="http://www.w3.org/2000/svg">
<path d="M25.3218 5.27946C12.3401 5.1061 1.74221 15.5849 1.91755 28.4207C2.09067 40.7309 12.2281 50.7544 24.6781 50.9255C37.662 51.1011 48.2577 40.6222 48.0801 27.7865C47.9092 15.4741 37.7718 5.45064 25.3218 5.27946ZM39.351 41.1873C39.3068 41.2346 39.2526 41.2717 39.1923 41.2959C39.1319 41.3202 39.067 41.331 39.002 41.3277C38.9369 41.3243 38.8735 41.3069 38.816 41.2765C38.7586 41.2462 38.7086 41.2038 38.6696 41.1522C37.677 39.8681 36.4614 38.7688 35.0796 37.9054C32.2542 36.1125 28.6743 35.125 24.9999 35.125C21.3256 35.125 17.7456 36.1125 14.9203 37.9054C13.5385 38.7684 12.3229 39.8674 11.3303 41.1511C11.2913 41.2027 11.2413 41.2451 11.1839 41.2754C11.1264 41.3058 11.0629 41.3232 10.9979 41.3266C10.9329 41.3299 10.8679 41.3191 10.8076 41.2948C10.7473 41.2706 10.6931 41.2335 10.6489 41.1862C7.3926 37.7105 5.54803 33.1689 5.46869 28.4317C5.2878 17.7542 14.149 8.81703 24.9522 8.7907C35.7554 8.76437 44.5312 17.4382 44.5312 28.1025C44.5349 32.9539 42.6846 37.6276 39.351 41.1873V41.1873Z" fill="#666666"/>
<path d="M24.9999 15.8066C22.8115 15.8066 20.8328 16.6175 19.4268 18.0911C18.0208 19.5648 17.3183 21.6024 17.477 23.7892C17.7988 28.096 21.1735 31.6072 24.9999 31.6072C28.8262 31.6072 32.1943 28.096 32.5227 23.7903C32.687 21.6243 31.9901 19.6054 30.5607 18.1043C29.1491 16.623 27.1738 15.8066 24.9999 15.8066Z" fill="#666666"/>
</svg>
